{"glyphs":{":":{"x_min":0,"x_max":240,"ha":240,"o":"m 120 514 b 66 514 23 470 23 417 b 23 364 66 320 120 320 b 174 320 217 364 217 417 b 217 470 174 514 120 514 z m 120 175 b 66 175 23 131 23 78 b 23 25 66 -18 120 -18 b 174 -18 217 25 217 78 b 217 131 174 175 120 175 z"},"$":{"x_min":0,"x_max":555,"ha":555,"o":"m 535 204 b 535 324 468 380 338 421 b 239 453 214 467 214 505 b 214 541 243 561 294 561 b 347 561 393 543 437 507 l 517 600 b 473 644 419 672 349 683 l 349 832 l 224 832 l 224 684 b 112 667 33 596 33 491 b 33 394 83 329 237 281 b 328 253 351 233 351 189 b 351 147 319 119 257 119 b 194 119 140 143 93 184 l 5 88 b 53 41 125 0 224 -8 l 224 -163 l 349 -163 l 349 -1 b 467 24 535 101 535 204 z"},"?":{"x_min":0,"x_max":488,"ha":488,"o":"m 251 713 b 142 713 66 670 10 604 l 121 516 b 156 554 194 574 232 574 b 270 574 292 557 292 526 b 292 452 139 462 139 287 l 139 262 l 299 262 l 299 281 b 299 388 478 379 478 543 b 478 634 403 713 251 713 z m 220 175 b 167 175 124 131 124 78 b 124 25 167 -18 220 -18 b 274 -18 317 25 317 78 b 317 131 274 175 220 175 z"},"<":{"x_min":0,"x_max":524,"ha":524,"o":"m 440 583 l 30 409 l 30 256 l 440 83 l 495 210 l 182 333 l 495 462 z"},"'":{"x_min":0,"x_max":244,"ha":244,"o":"m 64 410 l 180 410 l 200 695 l 44 695 z"},"=":{"x_min":0,"x_max":524,"ha":524,"o":"m 44 371 l 480 371 l 480 507 l 44 507 z m 44 156 l 480 156 l 480 292 l 44 292 z"},"a":{"x_min":0,"x_max":550,"ha":550,"o":"m 494 164 l 494 358 b 494 486 426 551 264 551 b 204 551 125 537 59 510 l 98 395 b 151 413 204 423 237 423 b 298 423 320 407 320 349 l 320 331 l 274 331 b 110 331 21 266 21 149 b 21 51 89 -18 195 -18 b 257 -18 317 2 355 60 b 383 9 426 -10 492 -15 l 528 100 b 504 109 494 124 494 164 z m 249 107 b 215 107 196 130 196 166 b 196 213 226 236 290 236 l 320 236 l 320 149 b 304 124 279 107 249 107 z"},"L":{"x_min":0,"x_max":517,"ha":517,"o":"m 239 695 l 54 695 l 54 0 l 486 0 l 506 144 l 239 144 z"},"3":{"x_min":0,"x_max":526,"ha":526,"o":"m 243 693 b 148 693 68 660 4 598 l 92 505 b 130 542 173 563 222 563 b 272 563 305 538 305 492 b 305 444 273 414 215 414 l 175 414 l 155 294 l 213 294 b 282 294 317 267 317 204 b 317 147 276 116 220 116 b 169 116 130 135 85 179 l -9 88 b 44 23 123 -18 232 -18 b 408 -18 499 78 499 190 b 499 300 427 349 343 358 b 429 384 477 439 477 521 b 477 618 395 693 243 693 z"},";":{"x_min":0,"x_max":240,"ha":240,"o":"m 120 514 b 66 514 23 470 23 417 b 23 364 66 320 120 320 b 174 320 217 364 217 417 b 217 470 174 514 120 514 z m 120 175 b 65 175 23 133 23 79 b 23 45 38 17 66 -1 l 23 -181 l 118 -181 l 181 -38 b 205 17 217 46 217 78 b 217 133 175 175 120 175 z"},"J":{"x_min":0,"x_max":321,"ha":321,"o":"m 270 695 l 85 695 l 85 115 b 85 35 74 -14 -15 -49 l 34 -179 b 153 -140 270 -76 270 108 z"},"V":{"x_min":0,"x_max":575,"ha":575,"o":"m 594 695 l 405 695 l 295 135 l 176 695 l -19 695 l 174 0 l 410 0 z"},"\"":{"x_min":0,"x_max":452,"ha":452,"o":"m 272 410 l 387 410 l 408 695 l 251 695 z m 64 410 l 180 410 l 200 695 l 44 695 z"},"7":{"x_min":0,"x_max":475,"ha":475,"o":"m 461 678 l 9 678 l 9 545 l 275 545 l 52 36 l 213 -18 l 461 559 z"},"S":{"x_min":0,"x_max":580,"ha":580,"o":"m 294 713 b 145 713 34 633 34 506 b 34 404 86 337 248 286 b 344 257 368 237 368 191 b 368 146 333 116 269 116 b 202 116 147 142 97 185 l 5 83 b 62 28 149 -18 276 -18 b 454 -18 560 74 560 205 b 560 331 491 390 354 433 b 250 467 224 481 224 521 b 224 559 254 580 308 580 b 363 580 411 561 459 523 l 542 621 b 480 680 402 713 294 713 z"},"}":{"x_min":0,"x_max":324,"ha":324,"o":"m 21 841 l 21 719 b 78 719 91 703 91 662 l 91 492 b 91 398 131 366 203 349 b 133 335 90 300 90 208 l 90 38 b 90 -3 77 -19 21 -19 l 21 -141 b 214 -141 256 -81 256 28 l 256 194 b 256 253 268 277 320 277 l 320 423 b 268 423 256 447 256 506 l 256 672 b 256 781 214 841 21 841 z"},"Z":{"x_min":0,"x_max":550,"ha":550,"o":"m 522 695 l 43 695 l 43 553 l 311 553 l 14 137 l 14 0 l 511 0 l 530 146 l 233 146 l 522 556 z"},"x":{"x_min":0,"x_max":520,"ha":520,"o":"m 367 285 l 508 533 l 320 533 l 261 369 l 198 533 l 0 533 l 152 280 l -15 0 l 177 0 l 254 191 l 335 0 l 535 0 z"},")":{"x_min":0,"x_max":325,"ha":325,"o":"m 117 863 l 3 786 b 97 654 134 526 134 350 b 134 174 97 46 3 -86 l 117 -163 b 219 -25 313 111 313 350 b 313 589 219 725 117 863 z"},"&":{"x_min":0,"x_max":799,"ha":799,"o":"m 316 713 b 162 713 92 629 92 543 b 92 482 115 443 188 372 b 96 313 53 260 53 178 b 53 59 155 -18 308 -18 b 388 -18 461 3 526 51 l 599 -18 l 754 48 l 630 155 b 666 204 697 264 723 338 l 577 380 b 565 327 550 282 533 244 l 410 360 b 488 412 540 467 540 551 b 540 642 459 713 316 713 z m 318 601 b 352 601 371 579 371 546 b 371 508 353 481 313 452 b 273 493 262 513 262 543 b 262 578 284 601 318 601 z m 289 277 l 439 134 b 410 115 378 106 340 106 b 278 106 241 139 241 189 b 241 223 255 251 289 277 z"},"_":{"x_min":0,"x_max":520,"ha":520,"o":"m 7 -179 l 513 -179 l 513 -43 l 7 -43 z"},"v":{"x_min":0,"x_max":520,"ha":520,"o":"m 530 533 l 349 533 l 263 131 l 183 533 l -10 533 l 156 0 l 367 0 z"},"O":{"x_min":0,"x_max":690,"ha":690,"o":"m 345 713 b 143 713 27 574 27 348 b 27 117 143 -18 345 -18 b 547 -18 664 122 664 348 b 664 579 547 713 345 713 z m 345 580 b 431 580 471 516 471 348 b 471 180 432 115 345 115 b 261 115 219 180 219 348 b 219 516 260 580 345 580 z"},"(":{"x_min":0,"x_max":325,"ha":325,"o":"m 207 863 b 106 725 12 589 12 350 b 12 111 106 -25 207 -163 l 321 -86 b 228 46 190 174 190 350 b 190 526 228 654 321 786 z"},"C":{"x_min":0,"x_max":579,"ha":579,"o":"m 347 713 b 161 713 27 581 27 349 b 27 110 156 -18 352 -18 b 449 -18 527 26 576 75 l 494 180 b 453 149 414 122 362 122 b 275 122 219 192 219 349 b 219 508 275 578 358 578 b 406 578 443 560 478 529 l 568 634 b 509 683 442 713 347 713 z"},"W":{"x_min":0,"x_max":853,"ha":853,"o":"m 848 695 l 671 695 l 601 137 l 525 695 l 331 695 l 246 137 l 189 695 l 5 695 l 110 0 l 345 0 l 425 515 l 499 0 l 740 0 z"},"A":{"x_min":0,"x_max":596,"ha":596,"o":"m 419 0 l 615 0 l 409 695 l 187 695 l -19 0 l 173 0 l 204 142 l 388 142 z m 233 274 l 296 563 l 359 274 z"},"f":{"x_min":0,"x_max":363,"ha":363,"o":"m 314 632 b 337 632 365 627 394 612 l 442 726 b 404 746 347 761 291 761 b 147 761 76 677 76 571 l 76 533 l 0 533 l 0 411 l 76 411 l 76 0 l 254 0 l 254 411 l 359 411 l 379 533 l 254 533 l 254 563 b 254 614 272 632 314 632 z"},"Q":{"x_min":0,"x_max":690,"ha":690,"o":"m 499 46 b 581 93 664 181 664 348 b 664 579 547 713 345 713 b 143 713 27 574 27 348 b 27 117 143 -15 333 -15 b 463 -15 540 -87 600 -160 l 710 -17 b 653 26 593 46 499 46 z m 219 348 b 219 516 260 580 345 580 b 431 580 471 516 471 348 b 471 180 432 115 345 115 b 261 115 219 180 219 348 z"},"w":{"x_min":0,"x_max":758,"ha":758,"o":"m 759 533 l 588 533 l 533 135 l 469 533 l 300 533 l 223 135 l 179 533 l 0 533 l 110 0 l 316 0 l 379 374 l 443 0 l 651 0 z"},"-":{"x_min":0,"x_max":409,"ha":409,"o":"m 40 245 l 369 245 l 369 381 l 40 381 z"},"E":{"x_min":0,"x_max":523,"ha":523,"o":"m 495 695 l 54 695 l 54 0 l 492 0 l 492 131 l 239 131 l 239 289 l 446 289 l 446 416 l 239 416 l 239 564 l 476 564 z"},"s":{"x_min":0,"x_max":488,"ha":488,"o":"m 253 551 b 110 551 28 477 28 383 b 28 300 81 244 183 214 b 277 186 291 179 291 148 b 291 120 266 106 224 106 b 174 106 125 128 86 158 l 1 63 b 54 14 136 -18 229 -18 b 369 -18 473 51 473 161 b 473 257 416 301 313 331 b 215 361 205 371 205 394 b 205 413 222 426 260 426 b 304 426 349 411 389 386 l 453 484 b 404 525 331 551 253 551 z"},">":{"x_min":0,"x_max":524,"ha":524,"o":"m 85 583 l 30 462 l 342 333 l 30 210 l 85 83 l 495 256 l 495 409 z"},"l":{"x_min":0,"x_max":299,"ha":299,"o":"m 204 -18 b 246 -18 282 -11 307 0 l 274 126 b 268 124 260 122 251 122 b 233 122 225 132 225 151 l 225 761 l 47 743 l 47 145 b 47 40 104 -18 204 -18 z"},"8":{"x_min":0,"x_max":590,"ha":590,"o":"m 433 364 b 507 405 539 463 539 517 b 539 627 440 693 295 693 b 150 693 51 616 51 509 b 51 448 77 391 148 347 b 71 313 25 259 25 181 b 25 73 121 -18 291 -18 b 468 -18 565 76 565 184 b 565 259 525 318 433 364 z m 296 575 b 343 575 367 547 367 508 b 367 472 358 440 315 409 l 292 419 b 244 440 223 466 223 506 b 223 553 252 575 296 575 z m 297 107 b 239 107 202 141 202 191 b 202 236 221 274 261 298 l 296 285 b 362 259 388 236 388 186 b 388 143 359 107 297 107 z"},"\\":{"x_min":0,"x_max":520,"ha":520,"o":"m 220 819 l 64 783 l 299 -115 l 456 -79 z"},"e":{"x_min":0,"x_max":556,"ha":556,"o":"m 535 275 b 535 451 437 551 282 551 b 112 551 25 422 25 264 b 25 99 115 -18 302 -18 b 391 -18 463 15 515 58 l 443 156 b 397 124 360 109 319 109 b 257 109 216 129 205 215 l 532 215 b 533 233 535 258 535 275 z m 360 319 l 205 319 b 212 407 238 436 285 436 b 342 436 359 389 360 325 z"},"b":{"x_min":0,"x_max":598,"ha":598,"o":"m 368 551 b 315 551 260 524 230 482 l 230 761 l 52 743 l 52 0 l 210 0 l 217 49 b 249 7 297 -18 356 -18 b 490 -18 569 102 569 266 b 569 444 502 551 368 551 z m 305 110 b 273 110 248 125 230 155 l 230 366 b 252 404 279 422 311 422 b 353 422 385 395 385 266 b 385 148 352 110 305 110 z"},"%":{"x_min":0,"x_max":869,"ha":869,"o":"m 614 722 l 151 25 l 258 -42 l 722 655 z m 207 693 b 106 693 25 622 25 510 b 25 398 106 327 207 327 b 309 327 389 398 389 510 b 389 622 309 693 207 693 z m 207 589 b 255 589 266 549 266 510 b 266 471 255 431 207 431 b 159 431 147 471 147 510 b 147 549 159 589 207 589 z m 662 347 b 561 347 479 276 479 164 b 479 52 561 -18 662 -18 b 764 -18 844 52 844 164 b 844 276 764 347 662 347 z m 662 243 b 710 243 721 203 721 164 b 721 125 710 86 662 86 b 614 86 602 125 602 164 b 602 204 614 243 662 243 z"},"m":{"x_min":0,"x_max":841,"ha":841,"o":"m 656 551 b 590 551 541 525 497 470 b 476 522 431 551 375 551 b 310 551 262 526 220 474 l 207 533 l 52 533 l 52 0 l 230 0 l 230 360 b 250 400 272 421 298 421 b 318 421 334 408 334 359 l 334 0 l 512 0 l 512 360 b 532 400 554 421 580 421 b 600 421 616 408 616 359 l 616 0 l 794 0 l 794 391 b 794 492 738 551 656 551 z"},"#":{"x_min":0,"x_max":568,"ha":568,"o":"m 553 438 l 553 554 l 501 554 l 518 678 l 371 678 l 354 554 l 270 554 l 286 678 l 140 678 l 123 554 l 52 554 l 52 438 l 108 438 l 83 252 l 15 252 l 15 137 l 68 137 l 50 0 l 197 0 l 215 137 l 299 137 l 281 0 l 428 0 l 446 137 l 516 137 l 516 252 l 461 252 l 486 438 z m 314 252 l 230 252 l 255 438 l 339 438 z"},",":{"x_min":0,"x_max":240,"ha":240,"o":"m 120 175 b 65 175 23 133 23 79 b 23 45 38 17 66 -1 l 23 -181 l 118 -181 l 181 -38 b 205 17 217 46 217 78 b 217 133 175 175 120 175 z"},"n":{"x_min":0,"x_max":575,"ha":575,"o":"m 382 551 b 317 551 267 526 220 473 l 207 533 l 52 533 l 52 0 l 230 0 l 230 360 b 255 400 281 421 310 421 b 334 421 350 408 350 359 l 350 0 l 528 0 l 528 391 b 528 493 472 551 382 551 z"},"h":{"x_min":0,"x_max":575,"ha":575,"o":"m 382 551 b 321 551 274 529 230 480 l 230 761 l 52 743 l 52 0 l 230 0 l 230 360 b 255 400 282 421 309 421 b 333 421 350 408 350 359 l 350 0 l 528 0 l 528 391 b 528 492 472 551 382 551 z"},"z":{"x_min":0,"x_max":465,"ha":465,"o":"m 445 533 l 29 533 l 29 401 l 241 401 l 9 125 l 9 0 l 436 0 l 452 133 l 216 133 l 445 408 z"},"B":{"x_min":0,"x_max":619,"ha":619,"o":"m 443 368 b 506 384 570 427 570 516 b 570 649 451 695 261 695 l 54 695 l 54 0 l 288 0 b 466 0 599 43 599 204 b 599 315 520 352 443 368 z m 278 566 b 351 566 382 547 382 497 b 382 444 352 421 287 421 l 239 421 l 239 566 z m 289 132 l 239 132 l 239 302 l 299 302 b 367 302 408 278 408 215 b 408 146 359 132 289 132 z"},"K":{"x_min":0,"x_max":646,"ha":646,"o":"m 644 695 l 451 695 l 245 370 l 450 0 l 662 0 l 435 385 z m 239 695 l 54 695 l 54 0 l 239 0 z"},"R":{"x_min":0,"x_max":620,"ha":620,"o":"m 426 0 l 632 0 l 459 290 b 546 336 587 389 587 479 b 587 627 489 695 295 695 l 54 695 l 54 0 l 239 0 l 239 256 l 290 256 z m 239 566 l 291 566 b 361 566 397 539 397 479 b 397 412 364 382 301 382 l 239 382 z"},"T":{"x_min":0,"x_max":547,"ha":547,"o":"m 549 695 l 7 695 l 7 554 l 181 554 l 181 0 l 366 0 l 366 554 l 530 554 z"},"P":{"x_min":0,"x_max":605,"ha":605,"o":"m 292 695 l 54 695 l 54 0 l 239 0 l 239 224 l 310 224 b 473 224 587 303 587 465 b 587 619 475 695 292 695 z m 293 356 l 239 356 l 239 565 l 289 565 b 363 565 398 530 398 464 b 398 387 360 356 293 356 z"},"|":{"x_min":0,"x_max":368,"ha":368,"o":"m 267 811 l 101 811 l 101 -106 l 267 -106 z"},"t":{"x_min":0,"x_max":393,"ha":393,"o":"m 347 137 b 328 126 310 122 293 122 b 264 122 247 138 247 188 l 247 411 l 350 411 l 368 533 l 247 533 l 247 667 l 69 646 l 69 533 l 0 533 l 0 411 l 69 411 l 69 186 b 69 53 128 -18 254 -18 b 303 -18 363 -4 406 26 z"},"M":{"x_min":0,"x_max":792,"ha":792,"o":"m 713 695 l 482 695 l 398 234 l 305 695 l 75 695 l 24 0 l 206 0 l 214 259 b 217 354 215 434 206 543 l 307 72 l 482 72 l 577 543 b 569 447 571 352 574 259 l 583 0 l 765 0 z"},"g":{"x_min":0,"x_max":561,"ha":561,"o":"m 521 627 b 455 585 382 547 267 551 b 122 551 25 478 25 353 b 25 285 52 237 123 199 b 84 176 57 136 57 95 b 57 37 106 -11 229 -11 l 305 -11 b 353 -11 371 -32 371 -57 b 371 -84 354 -109 268 -109 b 178 -109 160 -93 160 -50 l 1 -50 b 1 -154 53 -224 263 -224 b 451 -224 550 -155 550 -44 b 550 47 469 112 340 112 l 262 112 b 212 112 206 128 206 141 b 206 151 212 160 221 166 b 240 162 258 161 280 161 b 422 161 510 236 510 338 b 510 409 477 448 408 476 b 476 476 525 484 561 499 z m 272 435 b 320 435 343 412 343 359 b 343 303 319 275 273 275 b 231 275 202 302 202 357 b 202 407 230 435 272 435 z"},"j":{"x_min":0,"x_max":282,"ha":282,"o":"m 141 820 b 81 820 38 777 38 722 b 38 667 81 624 141 624 b 201 624 243 667 243 722 b 243 777 201 820 141 820 z m 230 533 l 52 533 l 52 58 b 52 -34 9 -64 -58 -95 l 2 -224 b 130 -180 230 -112 230 69 z"},"i":{"x_min":0,"x_max":282,"ha":282,"o":"m 141 820 b 81 820 39 777 39 722 b 39 667 81 624 141 624 b 201 624 243 667 243 722 b 243 777 201 820 141 820 z m 230 533 l 52 533 l 52 0 l 230 0 z"},"y":{"x_min":0,"x_max":526,"ha":526,"o":"m 536 533 l 353 533 l 260 111 l 179 533 l -10 533 l 146 0 l 207 0 b 179 -64 139 -91 36 -102 l 55 -225 b 227 -218 327 -141 370 0 z"},"@":{"x_min":0,"x_max":1020,"ha":1020,"o":"m 528 506 b 372 506 290 395 290 233 b 290 105 342 7 476 7 b 546 7 594 46 619 104 b 629 55 675 3 754 3 b 886 3 978 132 978 318 b 978 522 813 713 527 713 b 247 713 42 518 42 242 b 42 -43 230 -224 527 -224 b 609 -224 705 -206 767 -181 l 725 -61 b 675 -80 595 -96 528 -96 b 312 -96 200 32 200 243 b 200 447 314 586 526 586 b 732 586 822 485 822 316 b 822 153 788 109 746 109 b 714 109 706 134 706 217 l 706 459 b 651 489 583 506 528 506 z m 499 116 b 463 116 448 143 448 233 b 448 361 479 396 519 396 b 533 396 543 394 556 388 l 556 155 b 546 134 527 116 499 116 z"},".":{"x_min":0,"x_max":240,"ha":240,"o":"m 120 175 b 66 175 23 131 23 78 b 23 25 66 -18 120 -18 b 174 -18 217 25 217 78 b 217 131 174 175 120 175 z"},"p":{"x_min":0,"x_max":598,"ha":598,"o":"m 366 551 b 320 551 262 532 217 477 l 210 533 l 52 533 l 52 -224 l 230 -206 l 230 36 b 262 -1 305 -18 357 -18 b 486 -18 569 103 569 268 b 569 442 506 551 366 551 z m 300 110 b 271 110 250 123 230 152 l 230 366 b 252 404 279 422 308 422 b 355 422 385 396 385 266 b 385 152 351 110 300 110 z"},"X":{"x_min":0,"x_max":594,"ha":594,"o":"m 404 374 l 585 695 l 390 695 l 294 484 l 206 695 l 7 695 l 183 369 l -7 0 l 189 0 l 292 251 l 400 0 l 601 0 z"},"*":{"x_min":0,"x_max":452,"ha":452,"o":"m 448 528 l 402 668 l 279 603 l 301 743 l 151 743 l 174 603 l 50 667 l 4 527 l 142 507 l 43 409 l 165 320 l 226 446 l 289 321 l 411 410 l 310 507 z"},"Y":{"x_min":0,"x_max":607,"ha":607,"o":"m 618 695 l 422 695 l 306 400 l 191 695 l -11 695 l 211 258 l 211 0 l 396 0 l 396 259 z"},"c":{"x_min":0,"x_max":479,"ha":479,"o":"m 293 551 b 129 551 25 431 25 262 b 25 95 128 -18 298 -18 b 374 -18 433 6 481 46 l 404 156 b 367 132 342 120 307 120 b 250 120 210 150 210 263 b 210 376 246 416 309 416 b 343 416 374 405 406 379 l 481 483 b 431 527 372 551 293 551 z"},"!":{"x_min":0,"x_max":240,"ha":240,"o":"m 214 695 l 26 695 l 49 262 l 191 262 z m 120 175 b 66 175 23 131 23 78 b 23 25 66 -18 120 -18 b 174 -18 217 25 217 78 b 217 131 174 175 120 175 z"},"/":{"x_min":0,"x_max":520,"ha":520,"o":"m 300 819 l 64 -79 l 221 -115 l 456 783 z"},"[":{"x_min":0,"x_max":324,"ha":324,"o":"m 307 825 l 24 825 l 24 -125 l 307 -125 l 307 5 l 193 5 l 193 694 l 307 694 z"},"6":{"x_min":0,"x_max":573,"ha":573,"o":"m 357 459 b 308 459 260 443 218 404 b 229 513 276 569 344 569 b 380 569 407 559 434 543 l 498 648 b 460 674 406 693 340 693 b 149 693 32 539 32 308 b 32 112 114 -18 299 -18 b 460 -18 553 97 553 232 b 553 376 471 459 357 459 z m 300 107 b 240 107 220 158 219 298 b 245 325 275 339 303 339 b 352 339 375 312 375 230 b 375 156 352 107 300 107 z"},"r":{"x_min":0,"x_max":405,"ha":405,"o":"m 358 549 b 298 549 245 503 222 432 l 207 533 l 52 533 l 52 0 l 230 0 l 230 254 b 246 328 271 376 335 376 b 352 376 367 373 383 368 l 412 540 b 393 546 378 549 358 549 z"},"2":{"x_min":0,"x_max":523,"ha":523,"o":"m 241 693 b 135 693 55 644 1 572 l 104 489 b 141 536 175 558 222 558 b 271 558 301 528 301 478 b 301 402 250 341 26 124 l 26 0 l 479 0 l 498 135 l 228 135 b 441 323 483 398 483 497 b 483 602 400 693 241 693 z"},"{":{"x_min":0,"x_max":324,"ha":324,"o":"m 304 841 b 110 841 68 781 68 672 l 68 506 b 68 447 56 423 5 423 l 5 277 b 56 277 68 253 68 194 l 68 28 b 68 -81 110 -141 304 -141 l 304 -19 b 247 -19 235 -3 235 38 l 235 208 b 235 300 191 335 122 349 b 193 366 234 398 234 492 l 234 662 b 234 703 247 719 304 719 z"},"9":{"x_min":0,"x_max":571,"ha":571,"o":"m 283 693 b 134 693 21 598 21 456 b 21 316 111 232 216 232 b 278 232 318 253 352 291 b 320 180 240 132 70 93 l 105 -30 b 407 25 546 155 546 430 b 546 583 457 693 283 693 z m 273 354 b 233 354 199 378 199 464 b 199 534 232 569 281 569 b 345 569 364 526 363 406 b 338 371 306 354 273 354 z"}," ":{"x_min":0,"x_max":228,"ha":228,"o":""},"I":{"x_min":0,"x_max":293,"ha":293,"o":"m 239 695 l 54 695 l 54 0 l 239 0 z"},"H":{"x_min":0,"x_max":661,"ha":661,"o":"m 423 0 l 608 0 l 608 695 l 423 695 l 423 432 l 239 432 l 239 695 l 54 695 l 54 0 l 239 0 l 239 289 l 423 289 z"},"4":{"x_min":0,"x_max":575,"ha":575,"o":"m 557 272 l 484 272 l 484 426 l 331 426 l 311 272 l 207 272 l 365 642 l 213 697 l 24 257 l 24 140 l 309 140 l 310 0 l 484 0 l 484 140 l 557 140 z"},"~":{"x_min":0,"x_max":522,"ha":522,"o":"m 344 226 b 431 226 478 294 511 361 l 421 406 b 401 382 387 358 351 358 b 300 358 272 418 178 418 b 91 418 44 350 11 282 l 102 236 b 121 262 135 287 172 287 b 222 287 250 226 344 226 z"},"D":{"x_min":0,"x_max":654,"ha":654,"o":"m 262 695 l 54 695 l 54 0 l 276 0 b 461 0 627 72 627 350 b 627 636 450 695 262 695 z m 286 563 b 378 563 436 523 436 350 b 436 179 382 132 287 132 l 239 132 l 239 563 z"},"^":{"x_min":0,"x_max":564,"ha":564,"o":"m 364 846 l 201 846 l 12 527 l 186 527 l 281 715 l 381 527 l 553 527 z"},"0":{"x_min":0,"x_max":594,"ha":594,"o":"m 297 693 b 126 693 32 567 32 338 b 32 110 126 -18 297 -18 b 468 -18 561 110 561 338 b 561 566 468 693 297 693 z m 297 563 b 357 563 379 518 379 338 b 379 159 357 112 297 112 b 236 112 214 164 214 338 b 214 511 236 563 297 563 z"},"F":{"x_min":0,"x_max":486,"ha":486,"o":"m 481 695 l 54 695 l 54 0 l 239 0 l 239 266 l 435 266 l 435 397 l 239 397 l 239 564 l 462 564 z"},"`":{"x_min":0,"x_max":352,"ha":352,"o":"m 98 846 l 30 714 l 274 618 l 322 707 z"},"k":{"x_min":0,"x_max":564,"ha":564,"o":"m 230 761 l 52 743 l 52 0 l 230 0 z m 565 533 l 387 533 l 234 291 l 378 0 l 576 0 l 414 299 z"},"u":{"x_min":0,"x_max":569,"ha":569,"o":"m 517 533 l 339 533 l 339 165 b 318 130 292 112 267 112 b 241 112 225 125 225 173 l 225 533 l 47 533 l 47 150 b 47 48 94 -18 196 -18 b 264 -18 317 8 355 63 l 362 0 l 517 0 z"},"]":{"x_min":0,"x_max":324,"ha":324,"o":"m 300 825 l 18 825 l 18 695 l 131 695 l 131 5 l 18 5 l 18 -125 l 300 -125 z"},"U":{"x_min":0,"x_max":647,"ha":647,"o":"m 604 695 l 418 695 l 418 239 b 418 157 391 117 324 117 b 256 117 229 157 229 239 l 229 695 l 44 695 l 44 233 b 44 84 135 -18 324 -18 b 512 -18 604 92 604 233 z"},"o":{"x_min":0,"x_max":584,"ha":584,"o":"m 292 551 b 126 551 25 439 25 267 b 25 85 127 -18 292 -18 b 458 -18 559 94 559 266 b 559 448 457 551 292 551 z m 292 422 b 349 422 376 377 376 266 b 376 158 349 111 292 111 b 235 111 208 155 208 267 b 208 375 235 422 292 422 z"},"N":{"x_min":0,"x_max":657,"ha":657,"o":"m 603 695 l 439 695 l 439 443 b 439 325 453 239 464 170 l 282 695 l 54 695 l 54 0 l 218 0 l 218 235 b 218 364 203 457 194 523 l 370 0 l 603 0 z"},"+":{"x_min":0,"x_max":540,"ha":540,"o":"m 343 558 l 197 558 l 197 400 l 44 400 l 44 264 l 197 264 l 197 106 l 343 106 l 343 264 l 496 264 l 496 400 l 343 400 z"},"G":{"x_min":0,"x_max":649,"ha":649,"o":"m 367 713 b 175 713 27 583 27 348 b 27 111 130 -18 352 -18 b 440 -18 536 10 609 58 l 609 404 l 333 404 l 351 277 l 430 277 l 430 135 b 405 121 379 115 348 115 b 260 115 218 171 218 347 b 218 510 281 582 378 582 b 432 582 469 564 512 527 l 607 625 b 551 676 470 713 367 713 z"},"q":{"x_min":0,"x_max":595,"ha":595,"o":"m 388 533 l 380 491 b 341 533 295 551 249 551 b 109 551 25 433 25 268 b 25 95 90 -18 227 -18 b 292 -18 336 9 365 46 l 365 -206 l 543 -224 l 543 533 z m 287 110 b 241 110 208 137 208 267 b 208 381 245 423 295 423 b 325 423 344 409 365 386 l 365 164 b 343 128 317 110 287 110 z"},"d":{"x_min":0,"x_max":600,"ha":600,"o":"m 370 761 l 370 505 b 340 534 298 551 254 551 b 114 551 30 433 30 268 b 30 95 95 -18 232 -18 b 306 -18 354 18 383 59 l 390 0 l 548 0 l 548 743 z m 292 110 b 246 110 213 137 213 267 b 213 381 250 423 300 423 b 330 423 349 409 370 386 l 370 164 b 348 128 322 110 292 110 z"},"1":{"x_min":0,"x_max":473,"ha":473,"o":"m 399 678 l 241 678 l 7 537 l 84 420 l 226 507 l 226 0 l 399 0 z"},"5":{"x_min":0,"x_max":546,"ha":546,"o":"m 484 678 l 54 678 l 54 305 l 172 305 b 202 323 224 329 249 329 b 301 329 336 302 336 224 b 336 152 298 114 234 114 b 181 114 140 139 108 180 l 9 89 b 60 27 134 -18 242 -18 b 410 -18 518 80 518 226 b 518 368 433 449 322 449 b 292 449 258 442 225 427 l 225 552 l 465 552 z"}}}
